<svg xmlns="http://www.w3.org/2000/svg" style="width:0; height:0; visibility:hidden; display: none;">
  <symbol id="arrow-icon" viewBox="0 0 7 12">
        <path class="st0" d="M0.2,5.6l3.1-3.1c0.2-0.2,0.5-0.2,0.7,0c0.2,0.2,0.2,0.5,0,0.7L1.3,5.9l2.9,2.6c0.2,0.2,0.2,0.5,0,0.7
            C4,9.5,3.7,9.5,3.5,9.3l-3.2-3C0.1,6.2,0.1,6.1,0.1,6C0.1,5.8,0.1,5.7,0.2,5.6z"/>
        <path class="st0" d="M2.8,5.6l3.1-3.1c0.2-0.2,0.5-0.2,0.7,0c0.2,0.2,0.2,0.5,0,0.7L3.9,5.9l2.9,2.6C7,8.8,7,9.1,6.8,9.3
            c-0.2,0.2-0.5,0.2-0.7,0l-3.2-3C2.7,6.2,2.7,6.1,2.7,6C2.7,5.8,2.7,5.7,2.8,5.6z"/>
  </symbol>
</svg>
